<?xml version="1.0" encoding="utf-8"?>
<!-- Generator: Adobe Illustrator 17.1.0, SVG Export Plug-In . SVG Version: 6.00 Build 0)  -->
<!DOCTYPE svg PUBLIC "-//W3C//DTD SVG 1.1//EN" "http://www.w3.org/Graphics/SVG/1.1/DTD/svg11.dtd">
<svg version="1.1" id="圖層_1" xmlns="http://www.w3.org/2000/svg" xmlns:xlink="http://www.w3.org/1999/xlink" x="0px" y="0px"
	 viewBox="0 0 89 235.2" enable-background="new 0 0 89 235.2" xml:space="preserve">
<g id="克羅埃西亞">
	
		<rect id="脖子_2_" x="36.3" y="74.8" fill="#F6D7B8" stroke="#221714" stroke-width="7.6997" stroke-miterlimit="10" width="16.3" height="16.3"/>
	<g id="下身_2_">
		<polygon fill="#F6D7B8" stroke="#221714" stroke-width="8.213" stroke-miterlimit="10" points="44.5,204.9 19.2,140.8 69.8,140.8 
					"/>
		
			<rect x="17.2" y="142.3" fill="#FFFFFF" stroke="#221714" stroke-width="4.9029" stroke-miterlimit="10" width="54.6" height="24.1"/>
		<line fill="none" stroke="#221714" stroke-width="3.3365" stroke-miterlimit="10" x1="38.1" y1="156.7" x2="50.5" y2="156.7"/>
		<line fill="none" stroke="#221714" stroke-width="3.8291" stroke-miterlimit="10" x1="44.3" y1="156.7" x2="44.3" y2="184.6"/>
		<path id="腳_2_" fill="#1A0306" stroke="#221714" stroke-width="7.6997" stroke-miterlimit="10" d="M44.7,225.2h-0.5
			c-12.7,0-22.9-10.3-22.9-22.9v-19.6h46.3v19.6C67.7,215,57.4,225.2,44.7,225.2z"/>
	</g>
	<g id="身體_2_">
		<g>
			<defs>
				<rect id="SVGID_1_" x="15.9" y="85.8" width="57.2" height="54.2"/>
			</defs>
			<clipPath id="SVGID_2_">
				<use xlink:href="#SVGID_1_"  overflow="visible"/>
			</clipPath>
			
				<rect x="15.9" y="85.8" clip-path="url(#SVGID_2_)" fill="#F0F0F0" stroke="#221714" stroke-width="7.6997" stroke-miterlimit="10" width="57.2" height="54.2"/>
			<g clip-path="url(#SVGID_2_)">
				<rect x="36" y="88.4" fill="#FFFFFF" width="8.6" height="8.6"/>
				<rect x="27.3" y="88.4" fill="#D7261C" width="8.6" height="8.6"/>
				<rect x="18.6" y="88.4" fill="#E3E3E3" width="8.6" height="8.6"/>
				<rect x="44.7" y="88.4" fill="#D7261C" width="8.6" height="8.6"/>
				<rect x="53.4" y="88.4" fill="#FFFFFF" width="8.6" height="8.6"/>
				<rect x="62" y="88.4" fill="#D7261C" width="8.6" height="8.6"/>
			</g>
			<g clip-path="url(#SVGID_2_)">
				<rect x="36" y="106.5" fill="#FFFFFF" width="8.6" height="8.6"/>
				<rect x="27.3" y="106.5" fill="#D7261C" width="8.6" height="8.6"/>
				<rect x="18.6" y="106.5" fill="#E3E3E3" width="8.6" height="8.6"/>
				<rect x="53.4" y="106.5" fill="#FFFFFF" width="8.6" height="8.6"/>
				<rect x="62" y="106.5" fill="#D7261C" width="8.6" height="8.6"/>
			</g>
			<g clip-path="url(#SVGID_2_)">
				<rect x="27.3" y="97.4" fill="#FFFFFF" width="8.6" height="8.6"/>
				<rect x="18.6" y="97.4" fill="#D7261C" width="8.6" height="8.6"/>
				<rect x="9.9" y="97.4" fill="#E3E3E3" width="8.6" height="8.6"/>
				<rect x="36" y="97.4" fill="#D7261C" width="8.6" height="8.6"/>
				<rect x="44.6" y="97.4" fill="#FFFFFF" width="8.6" height="8.6"/>
				<rect x="53.3" y="97.4" fill="#D7261C" width="8.6" height="8.6"/>
			</g>
			<g clip-path="url(#SVGID_2_)">
				<rect x="27.3" y="115.5" fill="#FFFFFF" width="8.6" height="8.6"/>
				<rect x="18.6" y="115.5" fill="#D7261C" width="8.6" height="8.6"/>
				<rect x="9.9" y="115.5" fill="#E3E3E3" width="8.6" height="8.6"/>
				<rect x="36" y="115.5" fill="#D7261C" width="8.6" height="8.6"/>
				<rect x="44.6" y="115.5" fill="#FFFFFF" width="8.6" height="8.6"/>
			</g>
			<g clip-path="url(#SVGID_2_)">
				<rect x="36" y="124.5" fill="#FFFFFF" width="8.6" height="8.6"/>
				<rect x="27.3" y="124.5" fill="#D7261C" width="8.6" height="8.6"/>
				<rect x="18.6" y="124.5" fill="#E3E3E3" width="8.6" height="8.6"/>
				<rect x="44.7" y="124.5" fill="#D7261C" width="8.6" height="8.6"/>
				<rect x="53.4" y="124.5" fill="#FFFFFF" width="8.6" height="8.6"/>
				<rect x="62" y="124.5" fill="#D7261C" width="8.6" height="8.6"/>
			</g>
			<g clip-path="url(#SVGID_2_)">
				<rect x="27.3" y="133.5" fill="#FFFFFF" width="8.6" height="8.6"/>
				<rect x="18.6" y="133.5" fill="#D7261C" width="8.6" height="8.6"/>
				<rect x="9.9" y="133.5" fill="#E3E3E3" width="8.6" height="8.6"/>
				<rect x="36" y="133.5" fill="#D7261C" width="8.6" height="8.6"/>
				<rect x="44.6" y="133.5" fill="#FFFFFF" width="8.6" height="8.6"/>
				<rect x="53.3" y="133.5" fill="#D7261C" width="8.6" height="8.6"/>
			</g>
			<polygon clip-path="url(#SVGID_2_)" fill="#F6D7B8" stroke="#694369" stroke-width="2.2949" stroke-miterlimit="10" points="
				32.6,88.3 44.5,101.5 56.5,88.3 			"/>
		</g>
		<rect x="15.9" y="85.8" fill="none" stroke="#221714" stroke-width="7.6997" stroke-miterlimit="10" width="57.2" height="54.2"/>
	</g>
	<g id="臉_2_">
		<g>
			<defs>
				<ellipse id="SVGID_3_" cx="44.5" cy="43" rx="30.4" ry="33.1"/>
			</defs>
			<clipPath id="SVGID_4_">
				<use xlink:href="#SVGID_3_"  overflow="visible"/>
			</clipPath>
			
				<ellipse clip-path="url(#SVGID_4_)" fill="#F6D7B8" stroke="#221714" stroke-width="8.427" stroke-miterlimit="10" cx="44.5" cy="43" rx="30.4" ry="33.1"/>
			<polygon clip-path="url(#SVGID_4_)" fill="#A5852F" points="101.2,62.3 31,16.5 79.7,4.6 			"/>
			<polygon clip-path="url(#SVGID_4_)" fill="#C1A637" points="2.2,47.9 74.9,14.1 30.4,-3.8 			"/>
		</g>
		<ellipse fill="none" stroke="#221714" stroke-width="8.4697" stroke-miterlimit="10" cx="44.5" cy="43" rx="30.4" ry="33.1"/>
		<circle fill="#221714" cx="32.9" cy="39.5" r="1.3"/>
		<polyline fill="none" stroke="#221714" stroke-width="2.5666" stroke-miterlimit="10" points="25.5,38.5 39.6,37.4 37.9,55.9 
			50.4,55.9 48.7,47.6 		"/>
		<circle fill="#221714" cx="55.3" cy="39.5" r="1.3"/>
		<g id="雀斑_1_">
			<circle fill="#B18759" cx="28.5" cy="48.9" r="0.6"/>
			<circle fill="#B18759" cx="29.7" cy="46.7" r="0.6"/>
			<circle fill="#B18759" cx="31.1" cy="48.2" r="0.6"/>
			<circle fill="#B18759" cx="27.3" cy="45.6" r="0.6"/>
			<circle fill="#B18759" cx="32.3" cy="46.1" r="0.6"/>
			<circle fill="#B18759" cx="58.8" cy="49.5" r="0.6"/>
			<circle fill="#B18759" cx="58.1" cy="47.1" r="0.6"/>
			<circle fill="#B18759" cx="56.5" cy="48.4" r="0.6"/>
			<circle fill="#B18759" cx="60.7" cy="46.5" r="0.6"/>
			<circle fill="#B18759" cx="55.7" cy="46" r="0.6"/>
		</g>
		<rect x="37" y="61.7" fill="#FFFFFF" stroke="#D7261C" stroke-width="3.4642" stroke-miterlimit="10" width="14.7" height="8.7"/>
	</g>
</g>
</svg>
