<?xml version="1.0" encoding="utf-8"?>
<!-- Generator: Adobe Illustrator 17.1.0, SVG Export Plug-In . SVG Version: 6.00 Build 0)  -->
<!DOCTYPE svg PUBLIC "-//W3C//DTD SVG 1.1//EN" "http://www.w3.org/Graphics/SVG/1.1/DTD/svg11.dtd">
<svg version="1.1" id="圖層_1" xmlns="http://www.w3.org/2000/svg" xmlns:xlink="http://www.w3.org/1999/xlink" x="0px" y="0px"
	 viewBox="0 0 768 1300" enable-background="new 0 0 768 1300" xml:space="preserve">
<g>
	<g>
		<g>
			<rect x="-3.8" y="908" fill="#44A538" width="775.7" height="67.8"/>
			<rect x="-3.8" y="374.1" fill="#44A538" width="775.7" height="67.8"/>
			<rect x="-3.8" y="1041.5" fill="#44A538" width="775.7" height="67.8"/>
			<rect x="-3.8" y="774.6" fill="#44A538" width="775.7" height="67.8"/>
			<rect x="-3.8" y="507.6" fill="#44A538" width="775.7" height="67.8"/>
			<rect x="-3.8" y="1175" fill="#44A538" width="775.7" height="67.8"/>
			<rect x="-3.8" y="240.6" fill="#44A538" width="775.7" height="67.8"/>
			<rect x="-3.8" y="641.1" fill="#44A538" width="775.7" height="67.8"/>
			<polygon fill="#65B048" points="771.8,175.6 665.6,175.6 512.6,175.6 255.4,175.6 102.4,175.6 -3.8,175.6 -3.8,240.6 
				771.8,240.6 			"/>
			<rect x="-3.8" y="308.4" fill="#65B048" width="775.7" height="65.7"/>
			<rect x="-3.8" y="441.9" fill="#65B048" width="775.7" height="65.7"/>
			<rect x="-3.8" y="575.4" fill="#65B048" width="775.7" height="65.7"/>
			<polygon fill="#65B048" points="771.8,742.2 771.8,742.1 771.8,740 771.8,735.6 771.8,708.9 -3.8,708.9 -3.8,735.6 -3.8,740 
				-3.8,742.1 -3.8,742.2 -3.8,774.6 771.8,774.6 			"/>
			<rect x="-3.8" y="842.4" fill="#65B048" width="775.7" height="65.7"/>
			<rect x="-3.8" y="975.9" fill="#65B048" width="775.7" height="65.7"/>
			<rect x="-3.8" y="1109.4" fill="#65B048" width="775.7" height="65.7"/>
			<polygon fill="#65B048" points="102.4,1306.5 255.4,1306.5 512.6,1306.5 665.6,1306.5 771.8,1306.5 771.8,1242.9 -3.8,1242.9 
				-3.8,1306.5 			"/>
		</g>
		<g>
			<rect x="-3.8" y="726" fill="#44A538" width="775.7" height="67.8"/>
			<rect x="-3.8" y="192" fill="#44A538" width="775.7" height="67.8"/>
			<rect x="-3.8" y="859.5" fill="#44A538" width="775.7" height="67.8"/>
			<rect x="-3.8" y="592.5" fill="#44A538" width="775.7" height="67.8"/>
			<rect x="-3.8" y="325.5" fill="#44A538" width="775.7" height="67.8"/>
			<rect x="-3.8" y="993" fill="#44A538" width="775.7" height="67.8"/>
			<rect x="-3.8" y="58.5" fill="#44A538" width="775.7" height="67.8"/>
			<rect x="-3.8" y="459" fill="#44A538" width="775.7" height="67.8"/>
			<polygon fill="#65B048" points="771.8,-6.5 665.6,-6.5 512.6,-6.5 255.4,-6.5 102.4,-6.5 -3.8,-6.5 -3.8,58.5 771.8,58.5 			"/>
			<rect x="-3.8" y="126.3" fill="#65B048" width="775.7" height="65.7"/>
			<rect x="-3.8" y="259.8" fill="#65B048" width="775.7" height="65.7"/>
			<rect x="-3.8" y="393.3" fill="#65B048" width="775.7" height="65.7"/>
			<polygon fill="#65B048" points="771.8,560.1 771.8,560 771.8,557.9 771.8,553.5 771.8,526.8 -3.8,526.8 -3.8,553.5 -3.8,557.9 
				-3.8,560 -3.8,560.1 -3.8,592.5 771.8,592.5 			"/>
			<rect x="-3.8" y="660.3" fill="#65B048" width="775.7" height="65.7"/>
			<rect x="-3.8" y="793.8" fill="#65B048" width="775.7" height="65.7"/>
			<rect x="-3.8" y="927.3" fill="#65B048" width="775.7" height="65.7"/>
			<polygon fill="#65B048" points="102.4,1124.4 255.4,1124.4 512.6,1124.4 665.6,1124.4 771.8,1124.4 771.8,1060.8 -3.8,1060.8 
				-3.8,1124.4 			"/>
		</g>
	</g>
	<g>
		<g>
			<g>
				<path fill="#F8FBF7" d="M384,858.4c66.4,0,120.3-53.9,120.3-120.3c0-66.5-53.9-120.3-120.3-120.3s-120.3,53.9-120.3,120.3
					C263.7,804.6,317.6,858.4,384,858.4z M384,623.8c63.1,0,114.3,51.2,114.3,114.3c0,63.1-51.1,114.3-114.3,114.3
					c-63.1,0-114.3-51.2-114.3-114.3C269.7,675,320.9,623.8,384,623.8z"/>
			</g>
			<rect x="38.9" y="735" fill="#F8FBF7" width="690.2" height="6.3"/>
		</g>
		<g>
			<g>
				<path fill="#F8FBF7" d="M133.4,1281.9h136.1h228.9l136.1,0h94.5V741.2H723v494.7c-21.8,0.4-39.4,17.9-40,39.7h-48.4v-197.4
					H490.5c-0.3-0.6-0.6-1.2-0.9-1.8c-20.4-37.3-60-62.6-105.6-62.6c-45.5,0-85.1,25.3-105.6,62.6c-0.3,0.6-0.6,1.2-0.9,1.8H133.4
					v197.4H85c-0.6-21.8-18.2-39.3-40-39.7l0-494.7h-6.1l0,540.8H133.4z M723,1242.8v32.7h-33C690.5,1257.6,705,1243.2,723,1242.8z
					 M275.7,1275.5v-68.3h216.6v68.3H275.7z M285.4,1076.3c19.8-33.8,56.6-56.5,98.6-56.5c42,0,78.8,22.7,98.6,56.5
					c0.3,0.6,0.6,1.2,1,1.8l-199.1,0C284.8,1077.5,285.1,1076.9,285.4,1076.3z M139.6,1084.5h488.8v191l-130,0v-74.7H269.6v74.7
					h-130V1084.5z M78,1275.5H45v-32.7C63,1243.3,77.5,1257.6,78,1275.5z"/>
			</g>
			<path fill="#F8FBF7" d="M376.8,1153.9c0-4,3.2-7.2,7.2-7.2c4,0,7.2,3.2,7.2,7.2c0,4-3.2,7.2-7.2,7.2
				C380,1161,376.8,1157.8,376.8,1153.9z"/>
		</g>
		<g>
			<g>
				<path fill="#F8FBF7" d="M38.9,198.3v540.8H45V244.4c21.8-0.4,39.4-17.9,40-39.7h48.4v197.4h144.1c0.3,0.6,0.6,1.2,0.9,1.8
					c20.4,37.3,60,62.6,105.6,62.6c45.5,0,85.1-25.3,105.6-62.6c0.3-0.6,0.6-1.2,0.9-1.8h144.1V204.8H683
					c0.6,21.8,18.2,39.3,40,39.7v494.7h6.1V198.3h-94.5H498.4H269.6H133.4H38.9z M690,204.8h33v32.7C705,237,690.5,222.6,690,204.8z
					 M492.3,204.8v68.3H275.7v-68.3H492.3z M284.5,402.2h199.1c-0.3,0.6-0.6,1.2-1,1.8c-19.8,33.8-56.6,56.5-98.6,56.5
					c-42,0-78.8-22.7-98.6-56.5C285.1,403.4,284.8,402.8,284.5,402.2z M139.6,204.8h130v74.7h228.9v-74.7h130v191H139.6V204.8z
					 M45,237.4v-32.7h33C77.5,222.6,63,237,45,237.4z"/>
			</g>
			<path fill="#F8FBF7" d="M376.2,326.4c0,4.3,3.5,7.8,7.8,7.8c4.3,0,7.8-3.5,7.8-7.8c0-4.3-3.5-7.8-7.8-7.8
				C379.7,318.6,376.2,322.1,376.2,326.4z"/>
		</g>
		<path fill="#F8FBF7" d="M375.2,737.8c0-4.9,3.9-8.8,8.8-8.8c4.9,0,8.8,3.9,8.8,8.8c0,4.9-3.9,8.8-8.8,8.8
			C379.1,746.6,375.2,742.6,375.2,737.8z"/>
	</g>
</g>
</svg>
