<?xml version="1.0" encoding="utf-8"?>
<!-- Generator: Adobe Illustrator 17.1.0, SVG Export Plug-In . SVG Version: 6.00 Build 0)  -->
<!DOCTYPE svg PUBLIC "-//W3C//DTD SVG 1.1//EN" "http://www.w3.org/Graphics/SVG/1.1/DTD/svg11.dtd">
<svg version="1.1" id="圖層_1" xmlns="http://www.w3.org/2000/svg" xmlns:xlink="http://www.w3.org/1999/xlink" x="0px" y="0px"
	 viewBox="0 0 89 235.2" enable-background="new 0 0 89 235.2" xml:space="preserve">
<g id="日本">
	
		<rect id="脖子_8_" x="36.3" y="74.8" fill="#DCD2B7" stroke="#221714" stroke-width="7.6997" stroke-miterlimit="10" width="16.3" height="16.3"/>
	<g id="下身_8_">
		<polygon fill="#DCD2B7" stroke="#221714" stroke-width="8.427" stroke-miterlimit="10" points="44.5,204.9 19.2,140.8 69.8,140.8 
					"/>
		
			<rect x="17.2" y="142.3" fill="#1B2C74" stroke="#221714" stroke-width="4.9029" stroke-miterlimit="10" width="54.6" height="24.1"/>
		<line fill="none" stroke="#EA604A" stroke-width="4.9029" stroke-miterlimit="10" x1="17.2" y1="164.4" x2="71.8" y2="164.4"/>
		
			<rect x="17.2" y="142.3" fill="none" stroke="#221714" stroke-width="4.9029" stroke-miterlimit="10" width="54.6" height="24.1"/>
		<line fill="none" stroke="#221714" stroke-width="3.3365" stroke-miterlimit="10" x1="38.1" y1="156.7" x2="50.5" y2="156.7"/>
		<line fill="none" stroke="#221714" stroke-width="3.8291" stroke-miterlimit="10" x1="44.3" y1="156.7" x2="44.3" y2="184.6"/>
		<path id="腳_8_" fill="#1A0306" stroke="#221714" stroke-width="7.6997" stroke-miterlimit="10" d="M44.7,225.2h-0.5
			c-12.7,0-22.9-10.3-22.9-22.9v-19.6h46.3v19.6C67.7,215,57.4,225.2,44.7,225.2z"/>
	</g>
	<g id="身體_8_">
		<g>
			<defs>
				<rect id="SVGID_1_" x="15.9" y="85.8" width="57.2" height="54.2"/>
			</defs>
			<clipPath id="SVGID_2_">
				<use xlink:href="#SVGID_1_"  overflow="visible"/>
			</clipPath>
			
				<rect x="15.9" y="85.8" clip-path="url(#SVGID_2_)" fill="#1B2C74" stroke="#221714" stroke-width="7.6997" stroke-miterlimit="10" width="57.2" height="54.2"/>
			<g clip-path="url(#SVGID_2_)">
				<line fill="none" stroke="#19479B" stroke-width="4.096" stroke-miterlimit="10" x1="59.4" y1="88.5" x2="59.4" y2="143.9"/>
				<line fill="none" stroke="#19479B" stroke-width="4.4783" stroke-miterlimit="10" x1="73.3" y1="88.1" x2="40.1" y2="145.5"/>
				<line fill="none" stroke="#19479B" stroke-width="4.9476" stroke-miterlimit="10" x1="83.4" y1="98.2" x2="13.3" y2="138.7"/>
				<line fill="none" stroke="#19479B" stroke-width="4.096" stroke-miterlimit="10" x1="10" y1="112.6" x2="98.1" y2="112.6"/>
				<line fill="none" stroke="#19479B" stroke-width="4.2487" stroke-miterlimit="10" x1="16.7" y1="87.3" x2="98.7" y2="134.6"/>
				<line fill="none" stroke="#19479B" stroke-width="4.2487" stroke-miterlimit="10" x1="34" y1="69.9" x2="81.4" y2="152"/>
			</g>
			<polygon clip-path="url(#SVGID_2_)" fill="#DCD2B7" stroke="#1B2C74" stroke-width="2.2949" stroke-miterlimit="10" points="
				32.6,88.3 44.5,101.5 56.5,88.3 			"/>
			
				<line clip-path="url(#SVGID_2_)" fill="none" stroke="#19479B" stroke-width="4.096" stroke-miterlimit="10" x1="83.8" y1="128.8" x2="133.2" y2="79.3"/>
		</g>
		<rect x="15.9" y="85.8" fill="none" stroke="#221714" stroke-width="7.6997" stroke-miterlimit="10" width="57.2" height="54.2"/>
	</g>
	<g id="臉_8_">
		<g>
			<defs>
				<ellipse id="SVGID_3_" cx="44.5" cy="43" rx="30.4" ry="33.1"/>
			</defs>
			<clipPath id="SVGID_4_">
				<use xlink:href="#SVGID_3_"  overflow="visible"/>
			</clipPath>
			
				<ellipse clip-path="url(#SVGID_4_)" fill="#DCD2B7" stroke="#221714" stroke-width="8.427" stroke-miterlimit="10" cx="44.5" cy="43" rx="30.4" ry="33.1"/>
			<polygon clip-path="url(#SVGID_4_)" fill="#050001" points="2.4,26.4 82.7,26.5 49.8,-8.5 			"/>
			<g clip-path="url(#SVGID_4_)">
				<rect x="10" y="22.1" fill="#050001" width="16.2" height="12.8"/>
				<rect x="62.8" y="22.1" fill="#050001" width="16.2" height="12.8"/>
			</g>
		</g>
		<ellipse fill="none" stroke="#221714" stroke-width="8.4697" stroke-miterlimit="10" cx="44.5" cy="43" rx="30.4" ry="33.1"/>
		<circle fill="#221714" cx="32.9" cy="39.5" r="1.3"/>
		<polyline fill="none" stroke="#221714" stroke-width="2.5666" stroke-miterlimit="10" points="25.5,38.5 39.6,37.4 37.9,55.9 
			50.4,55.9 48.7,47.6 		"/>
		<circle fill="#221714" cx="55.3" cy="39.5" r="1.3"/>
		<polyline fill="none" stroke="#D7261C" stroke-width="2.5581" stroke-miterlimit="10" points="37.1,65.6 38.7,63.2 51.2,63.2 
			52.1,65.6 		"/>
	</g>
</g>
</svg>
