<?xml version="1.0" encoding="utf-8"?>
<!-- Generator: Adobe Illustrator 17.1.0, SVG Export Plug-In . SVG Version: 6.00 Build 0)  -->
<!DOCTYPE svg PUBLIC "-//W3C//DTD SVG 1.1//EN" "http://www.w3.org/Graphics/SVG/1.1/DTD/svg11.dtd">
<svg version="1.1" id="圖層_1" xmlns="http://www.w3.org/2000/svg" xmlns:xlink="http://www.w3.org/1999/xlink" x="0px" y="0px"
	 viewBox="0 0 89 235.2" enable-background="new 0 0 89 235.2" xml:space="preserve">
<g id="厄瓜多">
	
		<rect id="脖子_18_" x="36.3" y="74.8" fill="#3A2B24" stroke="#221714" stroke-width="8.427" stroke-miterlimit="10" width="16.3" height="16.3"/>
	<g id="下身_18_">
		<polygon fill="#3A2B24" stroke="#221714" stroke-width="8.427" stroke-miterlimit="10" points="44.5,204.9 19.2,140.8 69.8,140.8 
					"/>
		
			<rect x="17.2" y="142.3" fill="#304197" stroke="#221714" stroke-width="4.9029" stroke-miterlimit="10" width="54.6" height="24.1"/>
		<line fill="none" stroke="#221714" stroke-width="3.3365" stroke-miterlimit="10" x1="38.1" y1="156.7" x2="50.5" y2="156.7"/>
		<line fill="none" stroke="#221714" stroke-width="3.8291" stroke-miterlimit="10" x1="44.3" y1="156.7" x2="44.3" y2="184.6"/>
		<path id="腳_18_" fill="#1A0306" stroke="#221714" stroke-width="7.6997" stroke-miterlimit="10" d="M44.7,225.2h-0.5
			c-12.7,0-22.9-10.3-22.9-22.9v-19.6h46.3v19.6C67.7,215,57.4,225.2,44.7,225.2z"/>
	</g>
	<g id="身體_18_">
		<g>
			<defs>
				<rect id="SVGID_1_" x="15.9" y="85.8" width="57.2" height="54.2"/>
			</defs>
			<clipPath id="SVGID_2_">
				<use xlink:href="#SVGID_1_"  overflow="visible"/>
			</clipPath>
			
				<rect x="15.9" y="85.8" clip-path="url(#SVGID_2_)" fill="#DDE242" stroke="#221714" stroke-width="7.6997" stroke-miterlimit="10" width="57.2" height="54.2"/>
			<linearGradient id="SVGID_3_" gradientUnits="userSpaceOnUse" x1="17.1848" y1="103.786" x2="71.218" y2="103.786">
				<stop  offset="0" style="stop-color:#DDE242"/>
				<stop  offset="4.411215e-002" style="stop-color:#D9DE44"/>
				<stop  offset="8.984063e-002" style="stop-color:#CCD34A"/>
				<stop  offset="0.1363" style="stop-color:#B8BF54"/>
				<stop  offset="0.1833" style="stop-color:#9BA463"/>
				<stop  offset="0.2308" style="stop-color:#758175"/>
				<stop  offset="0.2779" style="stop-color:#48578B"/>
				<stop  offset="0.3" style="stop-color:#304197"/>
				<stop  offset="0.7" style="stop-color:#433590"/>
				<stop  offset="0.7323" style="stop-color:#5D2F79"/>
				<stop  offset="0.7868" style="stop-color:#822659"/>
				<stop  offset="0.8415" style="stop-color:#9F203F"/>
				<stop  offset="0.8955" style="stop-color:#B31B2D"/>
				<stop  offset="0.9487" style="stop-color:#C01822"/>
				<stop  offset="1" style="stop-color:#C4171E"/>
			</linearGradient>
			<rect x="17.2" y="98.6" clip-path="url(#SVGID_2_)" fill="url(#SVGID_3_)" width="54" height="10.4"/>
			<polygon clip-path="url(#SVGID_2_)" fill="#3A2B24" stroke="#DDE242" stroke-width="2.2949" stroke-miterlimit="10" points="
				32.6,88.3 44.5,101.5 56.5,88.3 			"/>
			
				<line clip-path="url(#SVGID_2_)" fill="none" stroke="#DDE242" stroke-width="2.2949" stroke-miterlimit="10" x1="56.5" y1="88.3" x2="32.6" y2="88.3"/>
			
				<line clip-path="url(#SVGID_2_)" fill="none" stroke="#DDE242" stroke-width="2.2949" stroke-miterlimit="10" x1="49.9" y1="95.5" x2="56.5" y2="88.3"/>
			<polyline clip-path="url(#SVGID_2_)" fill="none" stroke="#B31E23" stroke-width="2.2949" stroke-miterlimit="10" points="
				39.1,95.5 44.5,101.5 49.9,95.5 			"/>
			
				<line clip-path="url(#SVGID_2_)" fill="none" stroke="#DDE242" stroke-width="2.2949" stroke-miterlimit="10" x1="32.6" y1="88.3" x2="39.1" y2="95.5"/>
			<polygon clip-path="url(#SVGID_2_)" fill="#304197" points="32.3,83.6 32.3,95.3 19.2,95.3 17.2,84.4 			"/>
			<polygon clip-path="url(#SVGID_2_)" fill="#304197" points="57.2,83.6 57.2,95.3 70.3,95.3 72.4,84.4 			"/>
		</g>
		<rect x="15.9" y="85.8" fill="none" stroke="#221714" stroke-width="7.6997" stroke-miterlimit="10" width="57.2" height="54.2"/>
	</g>
	<g id="臉_18_">
		<g>
			<defs>
				<ellipse id="SVGID_4_" cx="44.5" cy="43" rx="30.4" ry="33.1"/>
			</defs>
			<clipPath id="SVGID_5_">
				<use xlink:href="#SVGID_4_"  overflow="visible"/>
			</clipPath>
			
				<ellipse clip-path="url(#SVGID_5_)" fill="#3A2B24" stroke="#221714" stroke-width="8.427" stroke-miterlimit="10" cx="44.5" cy="43" rx="30.4" ry="33.1"/>
			<polygon clip-path="url(#SVGID_5_)" fill="#080304" points="2.4,26.4 82.7,26.5 49.8,-8.5 			"/>
			<g opacity="0.4" clip-path="url(#SVGID_5_)">
				<rect x="10" y="22.1" fill="#080304" width="16.2" height="12.8"/>
				<rect x="62.8" y="22.1" fill="#080304" width="16.2" height="12.8"/>
			</g>
		</g>
		<ellipse fill="none" stroke="#221714" stroke-width="8.4697" stroke-miterlimit="10" cx="44.5" cy="43" rx="30.4" ry="33.1"/>
		<circle fill="#221714" cx="32.9" cy="39.5" r="1.3"/>
		<polyline fill="none" stroke="#221714" stroke-width="2.5666" stroke-miterlimit="10" points="25.5,38.5 39.6,37.4 37.9,55.9 
			50.4,55.9 48.7,47.6 		"/>
		<circle fill="#221714" cx="55.3" cy="39.5" r="1.3"/>
		
			<rect x="37.9" y="61.7" fill="#FFFFFF" stroke="#D7261C" stroke-width="3.8716" stroke-miterlimit="10" width="12.4" height="11.5"/>
	</g>
</g>
</svg>
