<?xml version="1.0" encoding="utf-8"?>
<!-- Generator: Adobe Illustrator 17.1.0, SVG Export Plug-In . SVG Version: 6.00 Build 0)  -->
<!DOCTYPE svg PUBLIC "-//W3C//DTD SVG 1.1//EN" "http://www.w3.org/Graphics/SVG/1.1/DTD/svg11.dtd">
<svg version="1.1" id="圖層_1" xmlns="http://www.w3.org/2000/svg" xmlns:xlink="http://www.w3.org/1999/xlink" x="0px" y="0px"
	 viewBox="0 0 89 235.2" enable-background="new 0 0 89 235.2" xml:space="preserve">
<g id="宏都拉斯">
	
		<rect id="脖子_16_" x="36.3" y="74.8" fill="#D59F94" stroke="#221714" stroke-width="7.6997" stroke-miterlimit="10" width="16.3" height="16.3"/>
	<g id="下身_16_">
		<polygon fill="#D59F94" stroke="#221714" stroke-width="8.427" stroke-miterlimit="10" points="44.5,204.9 19.2,140.8 69.8,140.8 
					"/>
		
			<rect x="17.2" y="142.3" fill="#FFFFFF" stroke="#221714" stroke-width="4.9029" stroke-miterlimit="10" width="54.6" height="24.1"/>
		<line fill="none" stroke="#39479A" stroke-width="2.7307" stroke-miterlimit="10" x1="17.2" y1="163.2" x2="71.8" y2="163.2"/>
		
			<rect x="17.2" y="142.3" fill="none" stroke="#221714" stroke-width="4.9029" stroke-miterlimit="10" width="54.6" height="24.1"/>
		<line fill="none" stroke="#221714" stroke-width="3.3365" stroke-miterlimit="10" x1="38.1" y1="156.7" x2="50.5" y2="156.7"/>
		<line fill="none" stroke="#221714" stroke-width="3.8291" stroke-miterlimit="10" x1="44.3" y1="156.7" x2="44.3" y2="184.6"/>
		<path id="腳_16_" fill="#1A0306" stroke="#221714" stroke-width="7.6997" stroke-miterlimit="10" d="M44.7,225.2h-0.5
			c-12.7,0-22.9-10.3-22.9-22.9v-19.6h46.3v19.6C67.7,215,57.4,225.2,44.7,225.2z"/>
	</g>
	<g id="身體_16_">
		<g>
			<defs>
				<rect id="SVGID_1_" x="15.9" y="85.8" width="57.2" height="54.2"/>
			</defs>
			<clipPath id="SVGID_2_">
				<use xlink:href="#SVGID_1_"  overflow="visible"/>
			</clipPath>
			
				<rect x="16" y="85.8" clip-path="url(#SVGID_2_)" fill="#FFFFFF" stroke="#221714" stroke-width="7.6997" stroke-miterlimit="10" width="57.2" height="54.2"/>
			<g clip-path="url(#SVGID_2_)">
				<line fill="none" stroke="#C6C5C5" stroke-width="0.9868" stroke-miterlimit="10" x1="23.2" y1="86.3" x2="23.2" y2="140"/>
				<line fill="none" stroke="#C6C5C5" stroke-width="0.9868" stroke-miterlimit="10" x1="37.5" y1="86.3" x2="37.5" y2="140"/>
				<line fill="none" stroke="#C6C5C5" stroke-width="0.9868" stroke-miterlimit="10" x1="51.8" y1="86.3" x2="51.8" y2="140"/>
				<line fill="none" stroke="#C6C5C5" stroke-width="0.9868" stroke-miterlimit="10" x1="66" y1="86.3" x2="66" y2="140"/>
			</g>
			<polygon clip-path="url(#SVGID_2_)" fill="#D59F94" stroke="#39479A" stroke-width="2.2949" stroke-miterlimit="10" points="
				32.6,88.3 44.5,101.5 56.5,88.3 			"/>
			<g clip-path="url(#SVGID_2_)">
				<path fill="#39479A" d="M67.5,103.6c0.1,0.1,0.3,0.1,0.6,0.1c0.1,0,0.3,0,0.4,0v0.7h-4.7v-0.7c0.1,0,0.2,0,0.4,0
					c0.2,0,0.4,0,0.6-0.1c0.1-0.1,0.2-0.2,0.2-0.3v-4.3h-4.5v4.3c0,0.1,0.1,0.3,0.1,0.3c0.1,0.1,0.3,0.1,0.6,0.1c0.1,0,0.3,0,0.4,0
					v0.7h-4.7v-0.7c0.1,0,0.2,0,0.4,0c0.3,0,0.5,0,0.6-0.1c0.1-0.1,0.2-0.2,0.2-0.3v-8.6c0-0.1-0.1-0.3-0.2-0.4
					c-0.1-0.1-0.3-0.2-0.6-0.2c-0.2,0-0.3,0-0.4,0v-0.7h4.7v0.7c-0.2,0-0.3,0-0.5,0c-0.2,0-0.4,0-0.5,0.2c-0.1,0.1-0.1,0.2-0.1,0.4
					v3.7h4.5v-3.7c0-0.2-0.1-0.3-0.2-0.4c-0.1-0.1-0.3-0.2-0.6-0.2c-0.2,0-0.3,0-0.4,0v-0.7h4.7v0.7c-0.1,0-0.3,0-0.5,0
					c-0.2,0-0.4,0-0.5,0.2c-0.1,0.1-0.2,0.2-0.2,0.4v8.6C67.3,103.4,67.4,103.5,67.5,103.6z"/>
			</g>
		</g>
		<rect x="15.9" y="85.8" fill="none" stroke="#221714" stroke-width="7.6997" stroke-miterlimit="10" width="57.2" height="54.2"/>
	</g>
	<g id="臉_16_">
		<g>
			<defs>
				<ellipse id="SVGID_3_" cx="44.5" cy="43" rx="30.4" ry="33.1"/>
			</defs>
			<clipPath id="SVGID_4_">
				<use xlink:href="#SVGID_3_"  overflow="visible"/>
			</clipPath>
			
				<ellipse clip-path="url(#SVGID_4_)" fill="#D59F94" stroke="#221714" stroke-width="8.427" stroke-miterlimit="10" cx="44.5" cy="43" rx="30.4" ry="33.1"/>
			<g clip-path="url(#SVGID_4_)">
				<rect x="10" y="22.1" fill="#191B19" width="16.2" height="12.8"/>
				<rect x="62.8" y="22.1" fill="#191B19" width="16.2" height="12.8"/>
			</g>
			<polygon clip-path="url(#SVGID_4_)" fill="#191B19" stroke="#D59F94" stroke-width="0.4551" stroke-miterlimit="10" points="
				2.4,26.4 82.7,26.5 49.8,-8.5 			"/>
		</g>
		<ellipse fill="none" stroke="#221714" stroke-width="8.4697" stroke-miterlimit="10" cx="44.5" cy="43" rx="30.4" ry="33.1"/>
		<circle fill="#221714" cx="32.9" cy="39.5" r="1.3"/>
		<polyline fill="none" stroke="#221714" stroke-width="2.5666" stroke-miterlimit="10" points="25.5,38.5 39.6,37.4 37.9,55.9 
			50.4,55.9 48.7,47.6 		"/>
		<circle fill="#221714" cx="55.3" cy="39.5" r="1.3"/>
		<polygon fill="#FFFFFF" stroke="#D7261C" stroke-width="2.4197" stroke-miterlimit="10" points="46.2,60.5 61.6,55.9 56.7,63 		
			"/>
	</g>
</g>
</svg>
