<?xml version="1.0" encoding="utf-8"?>
<!-- Generator: Adobe Illustrator 17.1.0, SVG Export Plug-In . SVG Version: 6.00 Build 0)  -->
<!DOCTYPE svg PUBLIC "-//W3C//DTD SVG 1.1//EN" "http://www.w3.org/Graphics/SVG/1.1/DTD/svg11.dtd">
<svg version="1.1" id="圖層_1" xmlns="http://www.w3.org/2000/svg" xmlns:xlink="http://www.w3.org/1999/xlink" x="0px" y="0px"
	 viewBox="0 0 89 235.2" enable-background="new 0 0 89 235.2" xml:space="preserve">
<g id="波士尼亞">
	
		<rect id="脖子_23_" x="36.3" y="74.8" fill="#F4D1A7" stroke="#221714" stroke-width="7.6997" stroke-miterlimit="10" width="16.3" height="16.3"/>
	<g id="下身_23_">
		<polygon fill="#F4D1A7" stroke="#221714" stroke-width="8.427" stroke-miterlimit="10" points="44.5,204.9 19.2,140.8 69.8,140.8 
					"/>
		
			<rect x="17.2" y="142.3" fill="#FFFFFF" stroke="#221714" stroke-width="4.9029" stroke-miterlimit="10" width="54.6" height="24.1"/>
		<polygon fill="#1B2C54" points="18.2,149.7 24.2,166.4 16.6,166.4 		"/>
		<polygon fill="#1B2C54" points="70.8,149.7 64.8,166.4 72.4,166.4 		"/>
		
			<rect x="17.2" y="142.3" fill="none" stroke="#221714" stroke-width="4.9029" stroke-miterlimit="10" width="54.6" height="24.1"/>
		<line fill="none" stroke="#221714" stroke-width="3.3365" stroke-miterlimit="10" x1="38.1" y1="156.7" x2="50.5" y2="156.7"/>
		<line fill="none" stroke="#221714" stroke-width="3.8291" stroke-miterlimit="10" x1="44.3" y1="156.7" x2="44.3" y2="184.6"/>
		<path id="腳_23_" fill="#1A0306" stroke="#221714" stroke-width="7.6997" stroke-miterlimit="10" d="M44.7,225.2h-0.5
			c-12.7,0-22.9-10.3-22.9-22.9v-19.6h46.3v19.6C67.7,215,57.4,225.2,44.7,225.2z"/>
	</g>
	<g id="身體_23_">
		<g>
			<defs>
				<rect id="SVGID_1_" x="15.9" y="85.8" width="57.2" height="54.2"/>
			</defs>
			<clipPath id="SVGID_2_">
				<use xlink:href="#SVGID_1_"  overflow="visible"/>
			</clipPath>
			
				<rect x="15.9" y="85.8" clip-path="url(#SVGID_2_)" fill="#FFFFFF" stroke="#221714" stroke-width="7.6997" stroke-miterlimit="10" width="57.2" height="54.2"/>
			<path clip-path="url(#SVGID_2_)" fill="#1B2C54" d="M30.1,85.4c0,0-12,10.9-12,27.1c0,0,9.6-16.2,21.6-16.2L30.1,85.4z"/>
			<path clip-path="url(#SVGID_2_)" fill="#1B2C54" d="M16.4,145.7c0,0-0.5-11.7,4.6-27c0,0-2,16.5,2,17.8L16.4,145.7z"/>
			<path clip-path="url(#SVGID_2_)" fill="#1B2C54" d="M72.4,145.7c0,0,0.5-11.7-4.6-27c0,0,2,16.5-2,17.8L72.4,145.7z"/>
			<path clip-path="url(#SVGID_2_)" fill="#1B2C54" d="M60.5,85.4c0,0,12,10.9,12,27.1c0,0-9.6-16.2-21.6-16.2L60.5,85.4z"/>
			<polygon clip-path="url(#SVGID_2_)" fill="#F4D1A7" stroke="#FFFFFF" stroke-width="2.2949" stroke-miterlimit="10" points="
				32.6,88.3 44.5,101.5 56.5,88.3 			"/>
			<polyline clip-path="url(#SVGID_2_)" fill="#F4D1A7" stroke="#1B2C54" stroke-width="2.2949" stroke-miterlimit="10" points="
				39,95.5 44.5,101.5 50,95.5 			"/>
		</g>
		<rect x="15.9" y="85.8" fill="none" stroke="#221714" stroke-width="7.6997" stroke-miterlimit="10" width="57.2" height="54.2"/>
	</g>
	<g id="臉_23_">
		<g>
			<defs>
				<ellipse id="SVGID_3_" cx="44.5" cy="43" rx="30.4" ry="33.1"/>
			</defs>
			<clipPath id="SVGID_4_">
				<use xlink:href="#SVGID_3_"  overflow="visible"/>
			</clipPath>
			
				<ellipse clip-path="url(#SVGID_4_)" fill="#F4D1A7" stroke="#221714" stroke-width="8.427" stroke-miterlimit="10" cx="44.5" cy="43" rx="30.4" ry="33.1"/>
			<g opacity="0.7" clip-path="url(#SVGID_4_)">
				<rect x="10.3" y="22.9" fill="#2E1507" width="16.2" height="12.8"/>
				<rect x="62.6" y="22.9" fill="#2E1507" width="16.2" height="12.8"/>
			</g>
			
				<polygon opacity="0.6" clip-path="url(#SVGID_4_)" fill="none" stroke="#686868" stroke-width="3.2768" stroke-miterlimit="10" stroke-opacity="0.6" points="
				33.1,58.4 55.5,58.4 59.5,74.8 29.8,74.8 			"/>
			
				<path opacity="0.8" clip-path="url(#SVGID_4_)" fill="none" stroke="#686868" stroke-width="6.3716" stroke-miterlimit="10" stroke-opacity="0.5" d="
				M70.1,43.1c0,15.5-11.6,28.1-25.8,28.1S18.5,58.6,18.5,43.1"/>
			<ellipse clip-path="url(#SVGID_4_)" fill="#3D2810" cx="44.3" cy="15.2" rx="39.6" ry="10"/>
		</g>
		<ellipse fill="none" stroke="#221714" stroke-width="8.4697" stroke-miterlimit="10" cx="44.5" cy="43" rx="30.4" ry="33.1"/>
		<circle fill="#221714" cx="32.9" cy="39.5" r="1.3"/>
		<polyline fill="none" stroke="#221714" stroke-width="2.5666" stroke-miterlimit="10" points="25.5,38.5 39.6,37.4 37.9,55.9 
			50.4,55.9 48.7,47.6 		"/>
		<circle fill="#221714" cx="55.3" cy="39.5" r="1.3"/>
		<polygon fill="#FFFFFF" stroke="#D7261C" stroke-width="3.4642" stroke-miterlimit="10" points="38.1,60.9 44.5,60.9 44.5,66.9 
			34.2,66.5 		"/>
	</g>
</g>
</svg>
