<?xml version="1.0" encoding="utf-8"?>
<!-- Generator: Adobe Illustrator 17.1.0, SVG Export Plug-In . SVG Version: 6.00 Build 0)  -->
<!DOCTYPE svg PUBLIC "-//W3C//DTD SVG 1.1//EN" "http://www.w3.org/Graphics/SVG/1.1/DTD/svg11.dtd">
<svg version="1.1" id="圖層_1" xmlns="http://www.w3.org/2000/svg" xmlns:xlink="http://www.w3.org/1999/xlink" x="0px" y="0px"
	 viewBox="0 0 89 235.2" enable-background="new 0 0 89 235.2" xml:space="preserve">
<g id="阿根廷">
	
		<rect id="脖子_21_" x="36.3" y="74.8" fill="#F6D7B8" stroke="#221714" stroke-width="7.6997" stroke-miterlimit="10" width="16.3" height="16.3"/>
	<g id="下身_21_">
		<polygon fill="#F6D7B8" stroke="#221714" stroke-width="8.213" stroke-miterlimit="10" points="44.5,204.9 19.2,140.8 69.8,140.8 
					"/>
		
			<rect x="17.2" y="142.3" fill="#040000" stroke="#221714" stroke-width="4.9029" stroke-miterlimit="10" width="54.6" height="24.1"/>
		<line fill="none" stroke="#FFFFFF" stroke-width="0.9102" stroke-miterlimit="10" x1="17.2" y1="161.9" x2="69.8" y2="161.9"/>
		
			<rect x="17.2" y="142.3" fill="none" stroke="#221714" stroke-width="4.9029" stroke-miterlimit="10" width="54.6" height="24.1"/>
		<line fill="none" stroke="#221714" stroke-width="3.3365" stroke-miterlimit="10" x1="38.1" y1="156.7" x2="50.5" y2="156.7"/>
		<line fill="none" stroke="#221714" stroke-width="3.8291" stroke-miterlimit="10" x1="44.3" y1="156.7" x2="44.3" y2="184.6"/>
		<path id="腳_21_" fill="#1A0306" stroke="#221714" stroke-width="7.6997" stroke-miterlimit="10" d="M44.7,225.2h-0.5
			c-12.7,0-22.9-10.3-22.9-22.9v-19.6h46.3v19.6C67.7,215,57.4,225.2,44.7,225.2z"/>
	</g>
	<g id="身體_21_">
		<g>
			<defs>
				<rect id="SVGID_1_" x="15.9" y="85.8" width="57.2" height="54.2"/>
			</defs>
			<clipPath id="SVGID_2_">
				<use xlink:href="#SVGID_1_"  overflow="visible"/>
			</clipPath>
			
				<rect x="15.9" y="85.8" clip-path="url(#SVGID_2_)" fill="#FFFFFF" stroke="#221714" stroke-width="7.6997" stroke-miterlimit="10" width="57.2" height="54.2"/>
			<g clip-path="url(#SVGID_2_)">
				<rect x="38.1" y="92" fill="#6473A5" width="12.4" height="46.9"/>
				<rect x="62.9" y="92" fill="#6473A5" width="12.4" height="46.9"/>
				<rect x="13.3" y="92" fill="#6473A5" width="12.4" height="46.9"/>
			</g>
			<polygon clip-path="url(#SVGID_2_)" fill="#F6D7B8" stroke="#FFFFFF" stroke-width="2.2949" stroke-miterlimit="10" points="
				32.6,88.3 44.5,101.5 56.5,88.3 			"/>
		</g>
		<rect x="15.9" y="85.8" fill="none" stroke="#221714" stroke-width="7.6997" stroke-miterlimit="10" width="57.2" height="54.2"/>
	</g>
	<g id="臉_21_">
		<g>
			<defs>
				<ellipse id="SVGID_3_" cx="44.5" cy="43" rx="30.4" ry="33.1"/>
			</defs>
			<clipPath id="SVGID_4_">
				<use xlink:href="#SVGID_3_"  overflow="visible"/>
			</clipPath>
			
				<ellipse clip-path="url(#SVGID_4_)" fill="#F6D7B8" stroke="#221714" stroke-width="8.427" stroke-miterlimit="10" cx="44.5" cy="43" rx="30.4" ry="33.1"/>
			<path clip-path="url(#SVGID_4_)" fill="#9D8282" fill-opacity="0.5" d="M14.1,44.5c0,0,16.4-0.5,16.4,26.5
				C30.5,71,14.1,63.2,14.1,44.5z"/>
			<path clip-path="url(#SVGID_4_)" fill="#9D8282" fill-opacity="0.5" d="M74.9,44.5c0,0-16.4-0.5-16.4,26.5
				C58.5,71,74.9,63.2,74.9,44.5z"/>
			
				<rect x="32.9" y="59.3" clip-path="url(#SVGID_4_)" fill="none" stroke="#9D8282" stroke-width="3.3959" stroke-miterlimit="10" stroke-opacity="0.5" width="23.3" height="20.3"/>
			<g clip-path="url(#SVGID_4_)">
				<rect x="62.6" y="15.5" fill="#180D05" fill-opacity="0.8" width="16.2" height="21.1"/>
				
					<ellipse transform="matrix(-0.9026 -0.4304 0.4304 -0.9026 80.8289 33.0289)" fill="#633319" stroke="#F6D7B8" stroke-width="0.9102" stroke-miterlimit="10" cx="44.2" cy="7.4" rx="30.6" ry="25.3"/>
				<rect x="9.9" y="15.5" fill="#180D05" fill-opacity="0.8" width="16.2" height="21.1"/>
				
					<ellipse transform="matrix(-0.9026 -0.4304 0.4304 -0.9026 80.8289 33.0289)" fill="#180D05" cx="44.2" cy="7.4" rx="30.6" ry="25.3"/>
			</g>
		</g>
		<ellipse fill="none" stroke="#221714" stroke-width="8.4697" stroke-miterlimit="10" cx="44.5" cy="43" rx="30.4" ry="33.1"/>
		<circle fill="#221714" cx="32.9" cy="39.5" r="1.3"/>
		<polyline fill="none" stroke="#221714" stroke-width="2.5666" stroke-miterlimit="10" points="25.5,38.5 39.6,37.4 37.9,55.9 
			50.4,55.9 48.7,47.6 		"/>
		<circle fill="#221714" cx="55.3" cy="39.5" r="1.3"/>
		<polyline fill="none" stroke="#D7261C" stroke-width="3.4245" stroke-miterlimit="10" points="50.4,66 38.1,62.9 34.7,66.9 		"/>
	</g>
</g>
</svg>
