<?xml version="1.0" encoding="utf-8"?>
<!-- Generator: Adobe Illustrator 17.1.0, SVG Export Plug-In . SVG Version: 6.00 Build 0)  -->
<!DOCTYPE svg PUBLIC "-//W3C//DTD SVG 1.1//EN" "http://www.w3.org/Graphics/SVG/1.1/DTD/svg11.dtd">
<svg version="1.1" id="圖層_1" xmlns="http://www.w3.org/2000/svg" xmlns:xlink="http://www.w3.org/1999/xlink" x="0px" y="0px"
	 viewBox="0 0 89 235.2" enable-background="new 0 0 89 235.2" xml:space="preserve">
<g id="伊朗">
	
		<rect id="脖子_20_" x="36.3" y="74.8" fill="#D49A6F" stroke="#221714" stroke-width="7.6997" stroke-miterlimit="10" width="16.3" height="16.3"/>
	<g id="下身_20_">
		<polygon fill="#D49A6F" stroke="#221714" stroke-width="8.427" stroke-miterlimit="10" points="44.5,204.9 19.2,140.8 69.8,140.8 
					"/>
		
			<rect x="17.2" y="142.3" fill="#FFFFFF" stroke="#221714" stroke-width="4.9029" stroke-miterlimit="10" width="54.6" height="24.1"/>
		
			<rect x="17.2" y="142.3" fill="none" stroke="#221714" stroke-width="4.9029" stroke-miterlimit="10" width="54.6" height="24.1"/>
		<line fill="none" stroke="#221714" stroke-width="3.3365" stroke-miterlimit="10" x1="38.1" y1="156.7" x2="50.5" y2="156.7"/>
		<line fill="none" stroke="#221714" stroke-width="3.8291" stroke-miterlimit="10" x1="44.3" y1="156.7" x2="44.3" y2="184.6"/>
		<path id="腳_20_" fill="#1A0306" stroke="#221714" stroke-width="7.6997" stroke-miterlimit="10" d="M44.7,225.2h-0.5
			c-12.7,0-22.9-10.3-22.9-22.9v-19.6h46.3v19.6C67.7,215,57.4,225.2,44.7,225.2z"/>
	</g>
	<g id="身體_20_">
		<g>
			<defs>
				<rect id="SVGID_1_" x="15.9" y="85.8" width="57.2" height="54.2"/>
			</defs>
			<clipPath id="SVGID_2_">
				<use xlink:href="#SVGID_1_"  overflow="visible"/>
			</clipPath>
			
				<rect x="16" y="85.8" clip-path="url(#SVGID_2_)" fill="#FFFFFF" stroke="#221714" stroke-width="7.6997" stroke-miterlimit="10" width="57.2" height="54.2"/>
			<polygon clip-path="url(#SVGID_2_)" fill="#D49A6F" stroke="#E61F19" stroke-width="2.2949" stroke-miterlimit="10" points="
				32.6,88.3 44.5,101.5 56.5,88.3 			"/>
			<polyline clip-path="url(#SVGID_2_)" fill="none" stroke="#0C6334" stroke-width="2.2949" stroke-miterlimit="10" points="
				38.8,95.2 44.5,101.5 50.3,95.2 			"/>
			<path clip-path="url(#SVGID_2_)" fill="#E61F19" d="M17.2,103.2c0,0,8.4,14.1,8.4,33.9l-8.4,0.2V103.2z"/>
			<path clip-path="url(#SVGID_2_)" fill="#E61F19" d="M51.5,95.7c0,0,20.3,19.8,20.3,42.1l-10-0.5C61.8,137.3,63.5,107.6,51.5,95.7
				z"/>
		</g>
		<rect x="15.9" y="85.8" fill="none" stroke="#221714" stroke-width="7.6997" stroke-miterlimit="10" width="57.2" height="54.2"/>
	</g>
	<g id="臉_20_">
		<g>
			<defs>
				<ellipse id="SVGID_3_" cx="44.5" cy="43" rx="30.4" ry="33.1"/>
			</defs>
			<clipPath id="SVGID_4_">
				<use xlink:href="#SVGID_3_"  overflow="visible"/>
			</clipPath>
			
				<ellipse clip-path="url(#SVGID_4_)" fill="#D49A6F" stroke="#221714" stroke-width="8.427" stroke-miterlimit="10" cx="44.5" cy="43" rx="30.4" ry="33.1"/>
			<g opacity="0.5" clip-path="url(#SVGID_4_)">
				<rect x="10" y="22.1" fill="#2A1208" width="16.2" height="12.8"/>
				<rect x="62.8" y="22.1" fill="#2A1208" width="16.2" height="12.8"/>
			</g>
			
				<polygon opacity="0.6" clip-path="url(#SVGID_4_)" fill="none" stroke="#46392E" stroke-width="3.2768" stroke-miterlimit="10" stroke-opacity="0.5" points="
				33.2,58.8 55.6,58.8 59.7,75.3 30,75.3 			"/>
			
				<path opacity="0.8" clip-path="url(#SVGID_4_)" fill="none" stroke="#675243" stroke-width="6.3716" stroke-miterlimit="10" stroke-opacity="0.8" d="
				M70.3,43.6c0,15.5-11.6,28.1-25.8,28.1S18.7,59.1,18.7,43.6"/>
			
				<line clip-path="url(#SVGID_4_)" fill="none" stroke="#675243" stroke-width="6.3716" stroke-miterlimit="10" stroke-opacity="0.6" x1="44.5" y1="66.9" x2="44.5" y2="76.2"/>
			<polygon clip-path="url(#SVGID_4_)" fill="#2A1208" stroke="#D49A6F" stroke-width="0.4551" stroke-miterlimit="10" points="
				1.4,20.8 81,31 52.8,-7.8 			"/>
			<polygon clip-path="url(#SVGID_4_)" fill="#2A1208" points="1.4,20.8 81,31 52.8,-7.8 			"/>
		</g>
		<ellipse fill="none" stroke="#221714" stroke-width="8.4697" stroke-miterlimit="10" cx="44.5" cy="43" rx="30.4" ry="33.1"/>
		<circle fill="#221714" cx="32.9" cy="39.5" r="1.3"/>
		<polyline fill="none" stroke="#221714" stroke-width="2.5666" stroke-miterlimit="10" points="25.5,38.5 39.6,37.4 37.9,55.9 
			50.4,55.9 48.7,47.6 		"/>
		<circle fill="#221714" cx="55.3" cy="39.5" r="1.3"/>
		<polygon fill="#FFFFFF" stroke="#D7261C" stroke-width="2.878" stroke-miterlimit="10" points="36.5,65.5 40.3,60.2 49.9,66.9 		
			"/>
	</g>
</g>
</svg>
