<?xml version="1.0" encoding="utf-8"?>
<!-- Generator: Adobe Illustrator 17.1.0, SVG Export Plug-In . SVG Version: 6.00 Build 0)  -->
<!DOCTYPE svg PUBLIC "-//W3C//DTD SVG 1.1//EN" "http://www.w3.org/Graphics/SVG/1.1/DTD/svg11.dtd">
<svg version="1.1" id="圖層_1" xmlns="http://www.w3.org/2000/svg" xmlns:xlink="http://www.w3.org/1999/xlink" x="0px" y="0px"
	 viewBox="0 0 89 235.2" enable-background="new 0 0 89 235.2" xml:space="preserve">
<g id="迦納">
	
		<rect id="脖子_26_" x="36.3" y="74.8" fill="#3A2B24" stroke="#221714" stroke-width="8.427" stroke-miterlimit="10" width="16.3" height="16.3"/>
	<g id="下身_26_">
		<polygon fill="#3A2B24" stroke="#221714" stroke-width="8.427" stroke-miterlimit="10" points="44.5,204.9 19.2,140.8 69.8,140.8 
					"/>
		
			<rect x="17.2" y="142.3" fill="#ECECEB" stroke="#221714" stroke-width="4.9029" stroke-miterlimit="10" width="54.6" height="24.1"/>
		<line fill="none" stroke="#221714" stroke-width="3.3365" stroke-miterlimit="10" x1="38.1" y1="156.7" x2="50.5" y2="156.7"/>
		<line fill="none" stroke="#221714" stroke-width="3.8291" stroke-miterlimit="10" x1="44.3" y1="156.7" x2="44.3" y2="184.6"/>
		<path id="腳_26_" fill="#1A0306" stroke="#221714" stroke-width="7.6997" stroke-miterlimit="10" d="M44.7,225.2h-0.5
			c-12.7,0-22.9-10.3-22.9-22.9v-19.6h46.3v19.6C67.7,215,57.4,225.2,44.7,225.2z"/>
	</g>
	<g id="身體_26_">
		<g>
			<defs>
				<rect id="SVGID_1_" x="15.9" y="85.8" width="57.2" height="54.2"/>
			</defs>
			<clipPath id="SVGID_2_">
				<use xlink:href="#SVGID_1_"  overflow="visible"/>
			</clipPath>
			
				<rect x="15.9" y="85.8" clip-path="url(#SVGID_2_)" fill="#ECECEB" stroke="#221714" stroke-width="7.6997" stroke-miterlimit="10" width="57.2" height="54.2"/>
			<polygon clip-path="url(#SVGID_2_)" fill="#3A2B24" stroke="#FFFFFF" stroke-width="2.2949" stroke-miterlimit="10" points="
				32.6,88.3 44.5,101.5 56.5,88.3 			"/>
			
				<line clip-path="url(#SVGID_2_)" fill="none" stroke="#F4CF1F" stroke-width="3.2818" stroke-miterlimit="10" x1="27.4" y1="86.8" x2="36.7" y2="97"/>
			
				<line clip-path="url(#SVGID_2_)" fill="none" stroke="#F4CF1F" stroke-width="3.2818" stroke-miterlimit="10" x1="52.3" y1="97.1" x2="61.6" y2="86.8"/>
			
				<line clip-path="url(#SVGID_2_)" fill="none" stroke="#326845" stroke-width="4.1787" stroke-miterlimit="10" x1="22.5" y1="86.2" x2="34.4" y2="99.1"/>
			
				<line clip-path="url(#SVGID_2_)" fill="none" stroke="#326845" stroke-width="4.1787" stroke-miterlimit="10" x1="54.5" y1="99.1" x2="66.6" y2="86.2"/>
			<polygon clip-path="url(#SVGID_2_)" fill="#CBCBCB" points="28.3,103.2 32.1,100 30.2,104.5 34.4,107.1 29.5,106.8 28.3,111.5 
				27.1,106.8 22.2,107.1 26.4,104.5 24.5,100 			"/>
			<polygon clip-path="url(#SVGID_2_)" fill="#D5D5D5" points="37.6,102.5 40,102.6 37.8,103.6 38.5,105.9 36.8,104.2 34.9,105.5 
				36,103.4 34.1,101.9 36.5,102.4 37.3,100.1 			"/>
			<polygon clip-path="url(#SVGID_2_)" fill="#AEAEAD" points="52.6,102.6 56.1,101.9 53.3,104.1 55,107.3 52.1,105.3 49.6,107.9 
				50.6,104.5 47.3,102.9 50.9,102.8 51.4,99.2 			"/>
			<polygon clip-path="url(#SVGID_2_)" fill="#DCDCDC" points="64.5,100.1 68.9,100.4 64.9,102.2 66.1,106.5 63,103.3 59.3,105.7 
				61.5,101.8 58,99 62.4,99.9 64,95.7 			"/>
			<polygon clip-path="url(#SVGID_2_)" fill="#B9B9B9" points="40.8,109.6 43.8,109.5 41.2,111 42.3,113.9 40,111.9 37.7,113.8 
				38.8,111 36.3,109.4 39.3,109.6 40.1,106.7 			"/>
			<polygon clip-path="url(#SVGID_2_)" fill="#C0C0C0" points="57.7,109.7 60.6,108.7 58.5,110.9 60.3,113.4 57.5,112 55.7,114.5 
				56.2,111.5 53.3,110.5 56.3,110 56.3,107 			"/>
			<polygon clip-path="url(#SVGID_2_)" fill="#ACACAB" points="25.1,110.2 27,110 25.4,111 26.2,112.8 24.7,111.6 23.3,112.9 
				24,111.1 22.3,110.2 24.2,110.2 24.6,108.4 			"/>
			<polygon clip-path="url(#SVGID_2_)" fill="#878787" points="65.9,115.7 69,115.2 66.5,117.1 68,119.9 65.4,118.1 63.3,120.4 
				64.1,117.4 61.3,116 64.4,115.9 64.8,112.8 			"/>
		</g>
		<rect x="15.9" y="85.8" fill="none" stroke="#221714" stroke-width="7.6997" stroke-miterlimit="10" width="57.2" height="54.2"/>
	</g>
	<g id="臉_26_">
		<g>
			<defs>
				<ellipse id="SVGID_3_" cx="44.5" cy="43" rx="30.4" ry="33.1"/>
			</defs>
			<clipPath id="SVGID_4_">
				<use xlink:href="#SVGID_3_"  overflow="visible"/>
			</clipPath>
			
				<ellipse clip-path="url(#SVGID_4_)" fill="#3A2B24" stroke="#221714" stroke-width="8.427" stroke-miterlimit="10" cx="44.5" cy="43" rx="30.4" ry="33.1"/>
			<g opacity="0.3" clip-path="url(#SVGID_4_)">
				<rect x="10" y="22.1" fill="#080304" width="16.2" height="12.8"/>
				<rect x="62.8" y="22.1" fill="#080304" width="16.2" height="12.8"/>
			</g>
			<rect x="15.9" y="4.2" clip-path="url(#SVGID_4_)" fill="#080304" fill-opacity="0.3" width="57.2" height="17.9"/>
			<rect x="36.3" y="7.8" clip-path="url(#SVGID_4_)" fill="#080304" width="16.3" height="14.3"/>
		</g>
		<ellipse fill="none" stroke="#221714" stroke-width="8.4697" stroke-miterlimit="10" cx="44.5" cy="43" rx="30.4" ry="33.1"/>
		<circle fill="#221714" cx="32.9" cy="39.5" r="1.3"/>
		<polyline fill="none" stroke="#221714" stroke-width="2.5666" stroke-miterlimit="10" points="25.5,38.5 39.6,37.4 37.9,55.9 
			50.4,55.9 48.7,47.6 		"/>
		<circle fill="#221714" cx="55.3" cy="39.5" r="1.3"/>
		<polygon fill="#FFFFFF" stroke="#D7261C" stroke-width="3.8716" stroke-miterlimit="10" points="32.9,62.7 58.8,57.1 57.1,67.7 
			32.9,66.8 		"/>
	</g>
</g>
</svg>
