<?xml version="1.0" encoding="utf-8"?>
<!-- Generator: Adobe Illustrator 17.1.0, SVG Export Plug-In . SVG Version: 6.00 Build 0)  -->
<!DOCTYPE svg PUBLIC "-//W3C//DTD SVG 1.1//EN" "http://www.w3.org/Graphics/SVG/1.1/DTD/svg11.dtd">
<svg version="1.1" id="圖層_1" xmlns="http://www.w3.org/2000/svg" xmlns:xlink="http://www.w3.org/1999/xlink" x="0px" y="0px"
	 viewBox="0 0 89 235.2" enable-background="new 0 0 89 235.2" xml:space="preserve">
<g id="俄羅斯">
	
		<rect id="脖子_29_" x="36.3" y="74.8" fill="#F6D7B8" stroke="#221714" stroke-width="7.6997" stroke-miterlimit="10" width="16.3" height="16.3"/>
	<g id="下身_29_">
		<polygon fill="#F6D7B8" stroke="#221714" stroke-width="8.213" stroke-miterlimit="10" points="44.5,204.9 19.2,140.8 69.8,140.8 
					"/>
		
			<rect x="17.2" y="142.3" fill="#E61F19" stroke="#221714" stroke-width="4.9029" stroke-miterlimit="10" width="54.6" height="24.1"/>
		<line fill="none" stroke="#F2E467" stroke-width="0.9102" stroke-miterlimit="10" x1="21.3" y1="140.8" x2="21.3" y2="166.4"/>
		<line fill="none" stroke="#F2E467" stroke-width="0.9102" stroke-miterlimit="10" x1="67.8" y1="140.8" x2="67.8" y2="166.4"/>
		
			<rect x="17.2" y="142.3" fill="none" stroke="#221714" stroke-width="4.9029" stroke-miterlimit="10" width="54.6" height="24.1"/>
		<line fill="none" stroke="#221714" stroke-width="3.3365" stroke-miterlimit="10" x1="38.1" y1="156.7" x2="50.5" y2="156.7"/>
		<line fill="none" stroke="#221714" stroke-width="3.8291" stroke-miterlimit="10" x1="44.3" y1="156.7" x2="44.3" y2="184.6"/>
		<path id="腳_29_" fill="#1A0306" stroke="#221714" stroke-width="7.6997" stroke-miterlimit="10" d="M44.7,225.2h-0.5
			c-12.7,0-22.9-10.3-22.9-22.9v-19.6h46.3v19.6C67.7,215,57.4,225.2,44.7,225.2z"/>
	</g>
	<g id="身體_29_">
		<g>
			<defs>
				<rect id="SVGID_1_" x="15.9" y="85.8" width="57.2" height="54.2"/>
			</defs>
			<clipPath id="SVGID_2_">
				<use xlink:href="#SVGID_1_"  overflow="visible"/>
			</clipPath>
			
				<rect x="15.9" y="85.8" clip-path="url(#SVGID_2_)" fill="#E61F19" stroke="#221714" stroke-width="7.6997" stroke-miterlimit="10" width="57.2" height="54.2"/>
			<polygon clip-path="url(#SVGID_2_)" fill="#F6D7B8" stroke="#E62A25" stroke-width="2.2949" stroke-miterlimit="10" points="
				32.6,88.3 44.5,101.5 56.5,88.3 			"/>
			<g clip-path="url(#SVGID_2_)">
				<line fill="none" stroke="#E62A25" stroke-width="5.6411" stroke-miterlimit="10" x1="22.1" y1="100" x2="62.1" y2="143.8"/>
				<line fill="none" stroke="#19499C" stroke-width="5.6411" stroke-miterlimit="10" x1="25.6" y1="96.9" x2="65.6" y2="140.7"/>
				<line fill="none" stroke="#FFFFFF" stroke-width="5.6411" stroke-miterlimit="10" x1="28.9" y1="93.8" x2="68.9" y2="137.6"/>
			</g>
		</g>
		<rect x="15.9" y="85.8" fill="none" stroke="#221714" stroke-width="7.6997" stroke-miterlimit="10" width="57.2" height="54.2"/>
	</g>
	<g id="臉_29_">
		<g>
			<defs>
				<ellipse id="SVGID_3_" cx="44.5" cy="43" rx="30.4" ry="33.1"/>
			</defs>
			<clipPath id="SVGID_4_">
				<use xlink:href="#SVGID_3_"  overflow="visible"/>
			</clipPath>
			
				<ellipse clip-path="url(#SVGID_4_)" fill="#F6D7B8" stroke="#221714" stroke-width="8.427" stroke-miterlimit="10" cx="44.5" cy="43" rx="30.4" ry="33.1"/>
			<rect x="62.6" y="18.2" clip-path="url(#SVGID_4_)" fill="#8D6125" fill-opacity="0.7" width="16.2" height="21.1"/>
			<rect x="9.9" y="18.2" clip-path="url(#SVGID_4_)" fill="#8D6125" fill-opacity="0.7" width="16.2" height="21.1"/>
			<ellipse clip-path="url(#SVGID_4_)" fill="#CD8A0C" cx="44.5" cy="3" rx="20" ry="28.1"/>
		</g>
		<ellipse fill="none" stroke="#221714" stroke-width="8.4697" stroke-miterlimit="10" cx="44.5" cy="43" rx="30.4" ry="33.1"/>
		<circle fill="#221714" cx="32.9" cy="39.5" r="1.3"/>
		<polyline fill="none" stroke="#221714" stroke-width="2.5666" stroke-miterlimit="10" points="25.5,38.5 39.6,37.4 37.9,55.9 
			50.4,55.9 48.7,47.6 		"/>
		<circle fill="#221714" cx="55.3" cy="39.5" r="1.3"/>
		<polygon fill="#FFFFFF" stroke="#D7261C" stroke-width="2.5613" stroke-miterlimit="10" points="51.7,58.9 47.2,67.2 60.9,66 
			59.7,57.8 		"/>
	</g>
</g>
</svg>
