<?xml version="1.0" encoding="utf-8"?>
<!-- Generator: Adobe Illustrator 17.1.0, SVG Export Plug-In . SVG Version: 6.00 Build 0)  -->
<!DOCTYPE svg PUBLIC "-//W3C//DTD SVG 1.1//EN" "http://www.w3.org/Graphics/SVG/1.1/DTD/svg11.dtd">
<svg version="1.1" id="圖層_1" xmlns="http://www.w3.org/2000/svg" xmlns:xlink="http://www.w3.org/1999/xlink" x="0px" y="0px"
	 viewBox="0 0 513.5 85.8" enable-background="new 0 0 513.5 85.8" xml:space="preserve">
<g>
	<g>
		<path fill="#EEE93A" d="M88.6,48.2L83.8,48V31.6c0-0.3,0.1-0.6,0.3-0.8l0.8-0.3h10.2v-7.1c0-0.5-0.2-0.7-0.7-0.7H83.9v-4.8h15.3
			c0.5,0,0.8,0.3,0.8,0.8v17.3h-4.8v-0.6h-5.7l-0.5,0.2L88.6,36v6.1h10c0.9,0.1,1.2,0.5,1.1,1.3c-0.1,11-0.2,17.3-0.5,19.1
			c-0.2,1.9-1.1,3.3-2.6,4.4c-1,0.7-2.3,1.1-4.1,1.4c-1.8,0.2-4.6-0.3-8.5-1.5L84,61.6c4.8,1.5,8.1,2,9.7,1.2c0.6-0.2,1-0.8,1.2-1.6
			c0.3-0.9,0.4-5.4,0.5-13.5c-0.1-0.4-0.3-0.6-0.7-0.5h-6V48.2z M102,68.7l-0.9-4.8l14.4-1.5v-8.2h-12.6c-0.4,0-0.6-0.2-0.6-0.7
			V36.9c0-0.4,0.2-0.6,0.6-0.6h12.6v-4.9l-13,0.9l-1.1-4.7l6-0.3c1.7-3.2,3.3-6.8,4.6-10.6l4.3,1.7c-0.7,2.3-2,5.2-3.6,8.6l14.2-0.8
			l-3.7-5.3l3.8-2.4c3.7,5.1,6.6,9.5,8.5,13l-4,2.2l-1.8-3.2l-9.3,0.7v5.2h12.1c0.4,0,0.6,0.2,0.6,0.6v16.6c0,0.5-0.2,0.7-0.6,0.7
			h-12.1v7.7l6.9-0.7l-2-4.1l4.4-1.9c2.9,6.1,4.7,10.3,5.4,12.5l-4.5,1.5l-1.2-3.5L102,68.7z M115.5,40.7h-8.5
			c-0.2,0-0.2,0.1-0.2,0.1v8.8l0.2,0.2h8.5V40.7z M120.4,49.8h7.9l0.2-0.2v-8.8l-0.2-0.1h-7.9V49.8z"/>
		<path fill="#231815" d="M153.6,24.3c-3.3,7.9-7.3,13.9-11.6,17.7l-2.4-1.6c5.1-4.7,8.9-10.4,11.4-17L153.6,24.3z M161.2,46.7
			c-1.2,7.7-6.9,14.9-16.6,21.5l-2.2-2c11-6.2,16.6-14.6,16.9-25.3h-10.3v-2.6H182l0.5,0.1l0.4,0.4v6.3c-0.2,10.1-0.9,16.4-2,18.6
			c-1,1.8-2.4,3.1-4.1,3.6c-3.9,1.5-9.5,1.1-16.9-1.2l0.2-3c7.3,2.3,12.5,2.8,15.4,1.6c1-0.3,1.8-1.1,2.6-2.3c1-1.5,1.6-4.4,1.9-8.7
			c0.3-8.2,0.4-12.5,0.1-12.8l-0.3-0.1H162L161.2,46.7z M177.1,18.3c0.6,0,1,0.3,1.3,1c3.7,9.4,8.3,16.5,13.7,21.4l-2.4,1.6
			c-4.7-4.5-9-11.5-12.9-20.8c-0.2-0.4-0.5-0.6-0.9-0.6h-21.7v-2.6H177.1z"/>
		<path fill="#231815" d="M197.3,45.2l-0.7-2.6l3.6-0.5c1.5-1.9,3.3-4.2,5.1-7c-3-2.7-5.9-4.8-8.8-6.4l1.1-2.3l2,1.1
			c2-3.2,3.9-6.6,5.7-10.5l2.3,1.2c-1.2,2.7-3.2,6.2-6.1,10.6l5,4c1.9-3.4,3.3-6.6,4.1-9.6l2.6,0.6c-1.4,5.6-4.7,11.6-9.8,17.8
			l11.3-1.5c-0.7-2-1.6-4.2-2.6-6.5l2.4-0.9c2.3,5.4,3.9,9.9,4.8,13.2l-2.5,0.7l-1.3-4l-7.3,0.9v24.5h-2.6V44.1L197.3,45.2z
			 M203.2,49.1c-1.7,7.3-3,12.3-3.9,14.8l-2.4-0.9c1.7-4.8,3-9.8,3.8-14.7L203.2,49.1z M217.4,59.8l-2.5,0.7l-3.1-11.4l2.4-0.9
			L217.4,59.8z M221.3,20.3c0-0.6,0.3-0.9,0.9-0.9h21.6c0.6,0,0.9,0.2,0.9,0.9v43.9h3.1v2.6h-30.2v-2.6h3.6V20.3z M242.1,34.1V22.4
			c0-0.3-0.2-0.4-0.5-0.4h-17.4c-0.3,0-0.4,0.1-0.4,0.4v11.6H242.1z M242.1,48.5V36.7h-18.2v11.8H242.1z M242.1,64.3V51.1h-18.2
			v13.2H242.1z"/>
		<path fill="#EEE93A" d="M305.2,44.3h-19.3v-5.1h19.3V24.2h-20.9v-5.1H331v5.1h-20.8v15.1h19.2v5.1h-19.2v17.8h23.2v5.1h-51.8v-5.1
			h23.6V44.3z"/>
		<path fill="#EEE93A" d="M353.6,69.1h-4.8V47.4l-8.7,1.8l-1.9-4.5c7.4-1.3,14.5-3.2,21.4-5.6l4.8-2.3h-25.5v-4.6H360v-5.4h-15.8
			v-4.6H360v-5.5h4.8v5.5h14.6v2l5-5.7l3.7,3.1c-3.2,4-6.5,7.5-9.7,10.7H390v4.6H373c-3.2,2.3-6.9,4.3-11.1,6.3h22.6
			c0.7,0,1,0.3,1,0.9v25.1h-4.8v-2.6h-27.1V69.1z M380.7,52.6v-4.3c0-0.4-0.2-0.6-0.7-0.6h-25.7c-0.5,0-0.7,0.2-0.7,0.6v4.3H380.7z
			 M353.6,57.2v4.7h27.1v-4.7H353.6z M377.1,26.8h-12.3v5.4h6.6l2.4-2L377.1,26.8z"/>
		<path fill="#231815" d="M398,19.8c1.5,2.1,3,4.8,4.4,8.1l-2.3,1.2c-1.5-3.4-3-6.1-4.4-7.9L398,19.8z M407.7,54.4h-11v-2.6h11v-7.4
			h-11.9v-2.6h7.2l-1.7-8.5h-5.5v-2.6h8.8V17.5h2.6v13.2h4.7V17.3h2.6v13.5h8.9v2.6h-5.6l-2.7,8.5h7.9v2.6h-12.7v7.4h11.5v2.6h-11.5
			v8.7l1.2-0.3c4.4-0.8,7.9-1.7,10.7-2.7l0.9,2.4c-6.9,2.2-15.8,3.9-26.4,4.9l-0.7-2.6c4.6-0.5,8.6-0.9,11.7-1.4V54.4z M412.3,41.8
			l2.8-8.5H404l1.7,8.5H412.3z M423.6,21.5c-1.2,2.3-2.8,4.9-5.1,7.7l-2.2-1.5c2.3-3,4-5.6,4.9-7.6L423.6,21.5z M425.6,30.9v-2.6
			h13.6V17.5h2.6v10.8h4.7v2.6h-4.7v34c0,1.1-0.5,2-1.4,2.6c-1.9,1.4-6,1.1-12.2-0.7l0.2-2.7c4.9,1.6,8.4,2,10.2,1.2
			c0.4-0.3,0.6-0.7,0.6-1V30.9H425.6z M428.4,36.9c2.4,4.9,4.5,9.9,6.2,15.2l-2.4,0.7c-1.7-5.4-3.8-10.4-6.2-14.9L428.4,36.9z"/>
		<path fill="#231815" d="M465,49c-2.9,8.2-6.4,14.4-10.6,18.4l-2.3-1.4c4.8-5.2,8.3-11.2,10.3-17.9L465,49z M453.6,31.8
			c3,1.5,6.1,3.6,9.7,6.5l-1.5,2.2c-3.7-3-7-5.1-9.6-6.4L453.6,31.8z M455.9,18.3c3,1.4,6.1,3.6,9.7,6.4l-1.5,2.2
			c-3.7-2.9-7-5.1-9.6-6.3L455.9,18.3z M479.5,55.1c-3.3,5.6-8.1,10.1-14.3,13.6l-1.9-2.2c10-4.5,15.8-12,17.4-22.5H466v-2.6h15
			l0.2-3.3V27.1h-12.5v-2.6h12.5v-7h2.6v7h13.7c0.5,0,0.7,0.2,0.7,0.6v16.2h5.1V44h-19.2c0.5,3.1,1.5,6.1,3.3,8.6
			c3,4.8,8.3,9.5,16,14.1l-2.2,2c-10.6-6.8-16.9-13.7-18.8-20.6C481.8,50,480.8,52.4,479.5,55.1z M483.8,41.4h11.7V27.5
			c0-0.3-0.2-0.4-0.5-0.4h-11.4v11L483.8,41.4z"/>
	</g>
	<g>
		<path fill="#EEE93A" d="M35.1,39.4c2,0.7,3.5,1.8,4.4,3.3c1,1.5,1.5,5.1,1.5,10.7c0,4.2-0.5,7.4-1.4,9.7c-0.9,2.3-2.6,4-4.9,5.2
			c-2.3,1.2-5.3,1.8-9,1.8c-4.1,0-7.4-0.7-9.7-2.1c-2.4-1.4-3.9-3.1-4.7-5.1c-0.7-2-1.1-5.5-1.1-10.5v-4.1h13.1v8.5
			c0,2.3,0.1,3.7,0.4,4.3c0.3,0.6,0.9,0.9,1.8,0.9c1,0,1.7-0.4,2-1.2c0.3-0.8,0.5-2.8,0.5-6.1v-3.6c0-2-0.2-3.5-0.7-4.4
			c-0.5-0.9-1.1-1.5-2-1.8s-2.6-0.5-5.1-0.5v-7.6c3.1,0,5-0.1,5.8-0.4c0.7-0.2,1.3-0.8,1.6-1.6c0.3-0.8,0.5-2,0.5-3.8v-2.9
			c0-1.8-0.2-3-0.6-3.6c-0.4-0.6-1-0.9-1.8-0.9c-0.9,0-1.5,0.3-1.9,0.9c-0.3,0.6-0.5,1.9-0.5,3.9v4.3H10.2v-4.5
			c0-5,1.1-8.4,3.4-10.1c2.3-1.8,5.9-2.6,10.9-2.6c6.2,0,10.5,1.2,12.7,3.7c2.2,2.4,3.3,5.8,3.3,10.1c0,2.9-0.4,5-1.2,6.3
			C38.5,37.2,37.1,38.3,35.1,39.4z"/>
		<path fill="#EEE93A" d="M73.8,60.2v8.9H45.1l0-7.5c8.5-13.9,13.6-22.5,15.2-25.8c1.6-3.3,2.4-5.9,2.4-7.7c0-1.4-0.2-2.5-0.7-3.2
			c-0.5-0.7-1.2-1.1-2.2-1.1c-1,0-1.7,0.4-2.2,1.2c-0.5,0.8-0.7,2.3-0.7,4.6v5H45.1v-1.9c0-2.9,0.2-5.2,0.5-6.9c0.3-1.7,1-3.4,2.2-5
			c1.2-1.6,2.7-2.9,4.6-3.7s4.2-1.3,6.8-1.3c5.2,0,9.1,1.3,11.8,3.9c2.7,2.6,4,5.8,4,9.8c0,3-0.7,6.2-2.2,9.5
			c-1.5,3.3-5.9,10.4-13.2,21.3H73.8z"/>
	</g>
</g>
</svg>
